# xmcd
#
# Track frame offsets:
#	207
#	10932
#	29307
#	45057
#	54507
#	70332
#	88107
#	99057
#	113907
#	130182
#	157182
#	172182
#	182607
#	195207
#
# Disc length: 2772 seconds
#
# Revision: 8
# Processed by: cddbd v1.5.2PL0 Copyright (c) Steve Scherf et al.
# Submitted via: EasyCDDAExtractor 2010.6.0.0
#
DISCID=ab0ad20e
DTITLE=Various Artist - Chicago The Blues Today Vol. 2
DYEAR=1966
DGENRE=Blues
TTITLE0=The James Cotton Blues Band - Cotton Crop Blues
TTITLE1=The James Cotton Blues Band - The Blues Keep Falling
TTITLE2=The James Cotton Blues Band - Love Me or Leave
TTITLE3=The James Cotton Blues Band - Rocket 88
TTITLE4=The James Cotton Blues Band - West Helena Blues
TTITLE5=The Otis Rush Blues Band - Everything's Going to Turn Out Alright
TTITLE6=The Otis Rush Blues Band - It's a Mean Old World
TTITLE7=The Otis Rush Blues Band - I Can't Quit You Baby
TTITLE8=The Otis Rush Blues Band - Rock
TTITLE9=The Otis Rush Blues Band - It's My Own Fault
TTITLE10=Homesick James and His Dusters - Dust My Broom
TTITLE11=Homesick James and His Dusters - Somebody Been Talkin'
TTITLE12=Homesick James and His Dusters - Set a Date
TTITLE13=Homesick James and His Dusters - So Mean to Me
EXTD=YEAR: 1999
EXTT0=
EXTT1=
EXTT2=
EXTT3=
EXTT4=
EXTT5=
EXTT6=
EXTT7=
EXTT8=
EXTT9=
EXTT10=
EXTT11=
EXTT12=
EXTT13=
PLAYORDER=
